<mxfile host="app.diagrams.net" modified="2023-12-12T09:25:12.103Z" agent="Mozilla/5.0 (Windows NT 10.0; Win64; x64) AppleWebKit/537.36 (KHTML, like Gecko) Chrome/118.0.0.0 Whale/3.23.214.17 Safari/537.36" etag="wULrZPCLeY310kHOgpc3" version="22.1.7" type="github">
  <diagram name="페이지-1" id="3UVDcHxQVvlTBRuwMWYc">
    <mxGraphModel dx="1299" dy="712" grid="1" gridSize="10" guides="1" tooltips="1" connect="1" arrows="1" fold="1" page="1" pageScale="1" pageWidth="1169" pageHeight="827" math="0" shadow="0">
      <root>
        <mxCell id="0" />
        <mxCell id="1" parent="0" />
        <mxCell id="zob20SesUyWMZqq7YhEZ-1" value="uzu-WAF&#xa;210.109.60.158&#xa;172.16.20.30" style="shape=image;verticalLabelPosition=bottom;labelBackgroundColor=none;verticalAlign=top;aspect=fixed;imageAspect=0;image=data:image/png,iVBORw0KGgoAAAANSUhEUgAAAGoAAABpCAYAAADStbY5AAAAAXNSR0IArs4c6QAAAARnQU1BAACxjwv8YQUAAAAJcEhZcwAAFxEAABcRAcom8z8AABDDSURBVHhe7V0LkBxFGZ6d2cvrklx2uucugeSivOQVfAGioKCIICWIQBTI3c5jN3chEBCh1CrAFIoIUdACBFJATAgRFAIBDD6IEZVAIEHBV0B8QIgkIRAKA4GAMH5/d8/u7O5sHruzl93LfFV/3e1O90z3//X/6J6daS1BggQJEiRIkCBBGOP6uMbz+7RZ9geGmO7+GvN2U0cSNAWYd3CKOVfpPPewzt2NBvd8g7mv68z9i8Gc2YaVO06VTLBTkOntTjGPCFprWP2+YU31DZ6DgCj6a+Uh+J55m0HcbelM70dVzQQDAuaNgrWcaXD3KUEOEcLdkBBRJMFnIo0Ic1/RuTdT67Dfo86UoEFIgaQT4d5+ZXCyFiIoICSwoDIRFhYmrA9/vVW66XiadmRanTdBbDBz+0HBc6HszUrZRQKEy/Pe1pnzexBgpzPeRw1mnwQLuh3yprCm8vLM+x/KP2iY2VPVFRLUBTO7O5R6KRS+Qbq5sIWQ1fT7cINP6qab1TR7mKoVIGWY3ik68x5A+XcloUFdZV3MfQMkXtPGvQ+qOgl2DEemde7kEVP+KC2I3FhYyVNBkPcSsrpLtIwzQVWKxkR7GIjMQVZJssPngqWJ+JVbi8zxEm2ka6laCbYOPwXlfwpW8itYD6yASAorlawg95rBnfltnc4kVWn7wKeMQ5YI6wTBwh2GrFOQJwhchWv3aONPHa5qJagAFA8l3gR39JYkKFAkESQtAYnEb/DdZ1WNmpA27cNwDcQ7Tw2EIH6p6+AvUv5Fhul+WlVJIDCql2GkXwLlPFtKkBrp5OaQirdxZGqZvg5Vq26AiC/gvEuDa5QSJuZfmwzTuVascuzSGNc3gtwMYtEKg5PFkLIUQSIOCWWtxefvamPPmKhqxQtqA/fOxXWekdcPxy8ikFytuw5lvqJZ9lhVaxcCs4/CaL5XKqN8NAvCKN2+U2POIapGY4FJMAi5EtfdGBm/iDDTfQyEnYbSKVlpMIP37w0yroUioJBwfCCFEEE5SrcfMlj2RE3ra1O1Bgxp1nswrGse2vU/SVj5APLewgD6GcocraoMMox1LRDwdXRwteiwyLIUQcKqxHzo75iwnk1LRKrWToNwycxdJi0r3FZyyTTAnP+CtCvaMvkDVJVWR18b5jtT0OmHKwmSnYYL3ICU/CqNO3urSs0BduIondnno31rAmsvbbuIoc8hxp6rdR3Trmq1IBBfQNBCdOrtSjdHQTr3Bki8L92VPVTVaE50nLFHynSuQLv/Wxm/hDukwbYCcrqmTTZUrRaAld0TnbgGwfm1ipGoAjNS8eWG5dI6W8sEZiPjHCsSIOYifkmCZL8oftFAxPc8N08z3Y+oKs2KnnZKY3XLezo6cxLzoefTzD2/ZZdq9p88RM9kT0c/VgZ9KvSRCOukWJt7UbjyTG+3qtUsmDkEDft8MQ6VNV5mTy/j8w/JjahKrY0Oewz6+3X0C/ErYlDSvJC7q5EhTo9zkl47eP7DmF/cJhpa4Q7oM9JtuIs0dz6uagwuZLwD4QqvRlKxpTQOU//J4mjZK7+EVkFUjYEHEoGvGVbuhYCQ4ojCZwhG3OOGZZ8Scfthu0G3L3Rr6lJkVkt1K7c0xZzZmjV5pDpcAt20c7rVXyyL+RqtnKvDJdBZ9sySssz9Abk1dXiHYTD7aAzIe0BQxPqhsLgtIHM2WaKqMhCYmYbCLhX3hgRJiiBhVeSjvX+h0Rdrnad1qQo1I8Xdy4zOs2VnO6fj3M4zcJ8ZdbgEKWZfaXTOKJbl7p+rkZri9nUlZZn3eDVStx9HpunOMc71hHR/JGHdTPMRvxdro3OmqtBY6JY9Aw1B5hNYkXJzzHsNbuBmzezdTxWtG1D2N1RGhWvAjTDnD9VGJYj6thy9qix3H9G6eiLnN4LUcFnm/rZ+ohQwQOneFvTxomx7SE+d06An50eNT+Mzfd0gY60KlvLiqqN0HwklYk23W5IohbZMz4GGSctltBwVWBeR5rxDyZcq1hig8xcWL0qdnOqnmHeTZk2PdDH1opWJCoA4ex7c4GsFy0J/EBvvaqhVoUNIwQPFUcLgLG9kgMT5kbCEiOLOimodRHyYWUbUQ+pQBVLc+U5Z2aXqUEOAgXGjjOcqTHBnjca896nDMaM91wWi/l28IEYG8y5QR2vH+POG049L0mzqIWnmlAhlefJ6pFBK9Z2nyMWWl1Nl5xRJFWX/nObZT0SW5faCkrLM/UPaco+IKqt1TetULa0ZIOZ4hIzXpVVBmLPZ4L2fU4djhpXdEyNPrn4TURAoI6+O1o4xziSxGo1ZPY3uEhHXgTILImNipMReFv2EwHWdo1paM9oy2QNADpILuraIU+/qPHu6OhwzOt09QNRzpUS5fepo7RCTRufl8HmLElZmSKmREndZOfrFrZd6wex90cd1kih5fZ3ZvepozGgsURtkJ6TS4FL9lLkTBNctJw5u8SzV0tqBKUslUW6POhozBpAoLZPztY6dIGNEvFLtSIgqRYgoGtUI6v53Lj7IX/lr7q+8bwDl59y/b+4Ef8K+X/JTowOFJkQVYebHG8wWgRakCaLundPt+5s0339hAGWD5r+0cqi/90Gn+trIUB9Nz1EtrR2tRBRliAbvn4tGlgjOsQideJPOFxD1k+vf6/vroLxnBlCe1fxnfz/S33PSZEWUdIFo9/Jwe6Xk56a4d4XWcWbkumMFWomoFHfvNLrOletdYRETT9n4ZiRK9Le8zV1nk6Jf0jJnbv137wFajKi5hdWAKtKUREUJFA5FP6OZ/bur7m0dLUWU5f60cGuhRNQKAaQ5LQrKLW+zuDXirh+UFqVb7ld13r8EPr9clqMTb9H5mjRGPVXWXkh+CWLUPG1kH1fd2zpaiaiq6HD3QCdKsr5tEvUPyHOQ1Tso/4REnY+kgijVx0wMy2SDgqhMntbBxDxqu4gCSe88nfLXPTrcX/1Qu//8sm1LUO6NvxqS5KjzViOKedNVS2vH4CCqOOHdLqKg0A2PDfMPPvxEfyjKj9gtu00Z2un4Yyb2+L+Yv7vvr404pzpvNFHJhFeiBqJeBFH7f/hkXxvaL5Z9tilQPJ138dwJCVE1o0aiDjr0JF9rp7ao7Iw6H5Lw90TW8HG2f/+88QlRNWOMN7F8CakWorRRqE8WFsgIurEZA1HinRR1opWIQtlzkJ7fjb/l8mt0YgudrxaixC0R1OudcqS/aEG3v+hmyLxuf9bMSX474hMdq40oSbLOnCcr25y/G+n5ddqos5jq3tbRSkSluHOH0XkOJoy0bBQWTCBV42shilbc6RbF9791oO9vxvH1kFc0/28PjPE7unsLcapWokR/y9vceRYNkBeTJaQaiLrsovcXScAca/kiyx89IQaiogQKh6IH6RJSwy3qgMSiBOqNUZY9AzFqIeqUifNAHDGqBzHqrvkT/btuhPxoon/FNyaJOVQMMeqJyjbnF8JD/HC7f57cSkRVhfj1bUxZ35BGZH2uq1paOwYHUck8Kl40GVHJykQ1NBFRG1YM8w85/AR/GBKJ9t2z25RhXY6fSdb66kSNq+frHx3ur1nW7q95eMS2BeX+g7/J6nk9SO5HxYw6idIt52uFxzFLxH0UnWjeO7zMfbqizeLRU2f+oLzDOwh/M7EuWUJqJqKiBAqHogfrElLyu76WIAplcwbvn4MGlwi+v9uQb0tu1hj1SHmbDZ6fg4F3+aD8pWxViN+eO+upEwFRyW/P60GjiApNeIOnOS676CD/sSXcf+yeAZTFXAyQ8fueljzNEYkQUYG7Ecs+UNaAS0fyfFR1RBBFyiLroicAB0zU9YI2JESVQxK1Cz7D2yii5FPxZUTF9FQ8c16VT8VDOWFRnSqVsjJVyypl11wWSoXE/1S8vLbOvAY9bD3CHgtinpVEoXNWn5/m7oXqaO0Yf+pw2u4uzbyDywUp8A3F62F0i/dM2EdFlqW0ueQ9E+6fkJgcEVmWO7dWvmfC+VhUWa2rJ4b3TLifK33PBKYj4k3UDcFkA4p6NEwUOrhMM2eMVgViR/SbW6L3fWreN7fM1A3uzC/2Q+hvNe3HqArED4zabxaIUp0Uvx1o0Gt2oMDWfxcS8y7ABBkTerImuh4NcOeBxr5hzHT3h6/dWPJ2MTQgbbpLDMs5VpWKDS1NFOmK526BvF0gKXB9pnjxcWOBuPRl8dJAdLBAVsHKnOspOVBF60ZLEpXp7YaLnglLekFeIyCJ9IS+mN6PB2iXhBlDDdO+XGZGITcoGiLegPkclHRxHO4QbrWF3oA5Y6hu2b0g/UlJUDCQaTCQrsRuCYsbGdMjkebOuSAHc4NpaEwwaqhRRB4aSVvaWVm3ntFD7wvS+dTQ45j2DdXfKet4xUdPqax7TTXl47zTSsoy76p63imrMe+TIOGXhuW9I/svU/CCFdHejPRewwbF8m3DdD8Cf3srGrWlsoH0WaTJCw0zd4yqMbhAk3UTUwjaa6qi/zI86Dy3BMcblYrvEHTNtE+BBT0MYtSIUtYlGkwW572KJORqmjSrOq2NcX0cBFyImPy8sphinwVBIq7+DVZ2VnO897wEtGmWPZVilPTRocbT/0Qg89amTecizZwysH46LmByLnYi5VGbwtCgBEFiY0v3B+jjeFWrSUFLQtz5HkbThsjRRu6Q5R4EoVM07bihqlbTI51xPoY23y8JKXdz8jOO3yFWM1oKGftw3XQXoQNvSsLCHSOLE5sc35E2m3y3m9E9e6V4jt62rHZrC/pBA48IEun9MrFbwF4zWmbgVUC4CtNdEXSq0MmCO3Q3p7gzS+voea+q0hwYnTPh4s4DCf8SA63EzVHbyc15f8dgu4A1weZk8cCyx6bptdJiBTm600iTV0ExX9a0OtLkWDBTNyznZBBUdXMyDK5N+Hz1EH56c21OFhvkfZmr0eFXVDZYVAIpgBTB3N/ttL2luPMhWP/daEfZpihB+7x3YUH3YdA1+x5RMYEmiDxHm45AATIQS4UEn8UoXqCZ+cNUjcYCbhcD5Eq4svXy+hgwBYLQFumiH4HF065rO9niBxpIdZHOnwYFPFnpYogwBG5SHM/N0viUcapWvLAmj9QtbzquuUomCuE2EEHCilbDyi6M475Ua4OCNrO/CgtbWzH/Koxm7x9p8duFuFa4EYfG5E6AhYR2tg4IokEiCHo1ZTqzh5jxbQozOMCcQ5AhXocgvqkQrwqKk+4I85SfG2buZFWjJtCuBTjvApBffdmL5ktwz6pKgkhw5/i02Lzfe7typCMBYd4bIHS2lsnu2B64Zn485kOXw9UiDoUHAoSuQ98x93G4uWy1hd8EFZhsyJVz9ymp1HDsgIKlJWxEBvnNbW5s2XV+u1hZFxtw4VxRsRBxKMXcb4/YJfeDjwO0VSxzLoU7fEEquSx+gUDMv1bq3POIEFUrQAqW9xmQDeusFodoS9b8HNrrSdVJUBcs+wOG6d4CBb9euowTKNx7B2QuhvSkM+4Reib7RVjI7XBlZeWJYCovbr/8xjCzn6HEQl0lQWxgzglwYQ9KCyGLChOmvgtLOA4JlylIegIWOHXXmw8NNDrOyCDg5+AS5W8My11aQdR34jY4CGLuS3RrXzOz2/fwWYKYkOntpgQA8681IhsUhJEFKaKEVYllqi0p5tzW1pXEoZ0LGb9mIeYgqXA3Ekk6c97C/6uQyt8EyzsBpVpmT/rBD9r3l+f3abPc99NvGbb7+doECRIkSJAgQYLBC037P5yO8d9BExbGAAAAAElFTkSuQmCC;fontStyle=1" vertex="1" parent="1">
          <mxGeometry x="160" y="160" width="40" height="39.62" as="geometry" />
        </mxCell>
        <mxCell id="zob20SesUyWMZqq7YhEZ-2" value="uzu-web_1&#xa;210.109.62.209&#xa;172.16.20.195" style="shape=image;verticalLabelPosition=bottom;labelBackgroundColor=none;verticalAlign=top;aspect=fixed;imageAspect=0;image=data:image/png,iVBORw0KGgoAAAANSUhEUgAAAGoAAABpCAYAAADStbY5AAAAAXNSR0IArs4c6QAAAARnQU1BAACxjwv8YQUAAAAJcEhZcwAAFxEAABcRAcom8z8AABDDSURBVHhe7V0LkBxFGZ6d2cvrklx2uucugeSivOQVfAGioKCIICWIQBTI3c5jN3chEBCh1CrAFIoIUdACBFJATAgRFAIBDD6IEZVAIEHBV0B8QIgkIRAKA4GAMH5/d8/u7O5sHruzl93LfFV/3e1O90z3//X/6J6daS1BggQJEiRIkCBBGOP6uMbz+7RZ9geGmO7+GvN2U0cSNAWYd3CKOVfpPPewzt2NBvd8g7mv68z9i8Gc2YaVO06VTLBTkOntTjGPCFprWP2+YU31DZ6DgCj6a+Uh+J55m0HcbelM70dVzQQDAuaNgrWcaXD3KUEOEcLdkBBRJMFnIo0Ic1/RuTdT67Dfo86UoEFIgaQT4d5+ZXCyFiIoICSwoDIRFhYmrA9/vVW66XiadmRanTdBbDBz+0HBc6HszUrZRQKEy/Pe1pnzexBgpzPeRw1mnwQLuh3yprCm8vLM+x/KP2iY2VPVFRLUBTO7O5R6KRS+Qbq5sIWQ1fT7cINP6qab1TR7mKoVIGWY3ik68x5A+XcloUFdZV3MfQMkXtPGvQ+qOgl2DEemde7kEVP+KC2I3FhYyVNBkPcSsrpLtIwzQVWKxkR7GIjMQVZJssPngqWJ+JVbi8zxEm2ka6laCbYOPwXlfwpW8itYD6yASAorlawg95rBnfltnc4kVWn7wKeMQ5YI6wTBwh2GrFOQJwhchWv3aONPHa5qJagAFA8l3gR39JYkKFAkESQtAYnEb/DdZ1WNmpA27cNwDcQ7Tw2EIH6p6+AvUv5Fhul+WlVJIDCql2GkXwLlPFtKkBrp5OaQirdxZGqZvg5Vq26AiC/gvEuDa5QSJuZfmwzTuVascuzSGNc3gtwMYtEKg5PFkLIUQSIOCWWtxefvamPPmKhqxQtqA/fOxXWekdcPxy8ikFytuw5lvqJZ9lhVaxcCs4/CaL5XKqN8NAvCKN2+U2POIapGY4FJMAi5EtfdGBm/iDDTfQyEnYbSKVlpMIP37w0yroUioJBwfCCFEEE5SrcfMlj2RE3ra1O1Bgxp1nswrGse2vU/SVj5APLewgD6GcocraoMMox1LRDwdXRwteiwyLIUQcKqxHzo75iwnk1LRKrWToNwycxdJi0r3FZyyTTAnP+CtCvaMvkDVJVWR18b5jtT0OmHKwmSnYYL3ICU/CqNO3urSs0BduIondnno31rAmsvbbuIoc8hxp6rdR3Trmq1IBBfQNBCdOrtSjdHQTr3Bki8L92VPVTVaE50nLFHynSuQLv/Wxm/hDukwbYCcrqmTTZUrRaAld0TnbgGwfm1ipGoAjNS8eWG5dI6W8sEZiPjHCsSIOYifkmCZL8oftFAxPc8N08z3Y+oKs2KnnZKY3XLezo6cxLzoefTzD2/ZZdq9p88RM9kT0c/VgZ9KvSRCOukWJt7UbjyTG+3qtUsmDkEDft8MQ6VNV5mTy/j8w/JjahKrY0Oewz6+3X0C/ErYlDSvJC7q5EhTo9zkl47eP7DmF/cJhpa4Q7oM9JtuIs0dz6uagwuZLwD4QqvRlKxpTQOU//J4mjZK7+EVkFUjYEHEoGvGVbuhYCQ4ojCZwhG3OOGZZ8Scfthu0G3L3Rr6lJkVkt1K7c0xZzZmjV5pDpcAt20c7rVXyyL+RqtnKvDJdBZ9sySssz9Abk1dXiHYTD7aAzIe0BQxPqhsLgtIHM2WaKqMhCYmYbCLhX3hgRJiiBhVeSjvX+h0Rdrnad1qQo1I8Xdy4zOs2VnO6fj3M4zcJ8ZdbgEKWZfaXTOKJbl7p+rkZri9nUlZZn3eDVStx9HpunOMc71hHR/JGHdTPMRvxdro3OmqtBY6JY9Aw1B5hNYkXJzzHsNbuBmzezdTxWtG1D2N1RGhWvAjTDnD9VGJYj6thy9qix3H9G6eiLnN4LUcFnm/rZ+ohQwQOneFvTxomx7SE+d06An50eNT+Mzfd0gY60KlvLiqqN0HwklYk23W5IohbZMz4GGSctltBwVWBeR5rxDyZcq1hig8xcWL0qdnOqnmHeTZk2PdDH1opWJCoA4ex7c4GsFy0J/EBvvaqhVoUNIwQPFUcLgLG9kgMT5kbCEiOLOimodRHyYWUbUQ+pQBVLc+U5Z2aXqUEOAgXGjjOcqTHBnjca896nDMaM91wWi/l28IEYG8y5QR2vH+POG049L0mzqIWnmlAhlefJ6pFBK9Z2nyMWWl1Nl5xRJFWX/nObZT0SW5faCkrLM/UPaco+IKqt1TetULa0ZIOZ4hIzXpVVBmLPZ4L2fU4djhpXdEyNPrn4TURAoI6+O1o4xziSxGo1ZPY3uEhHXgTILImNipMReFv2EwHWdo1paM9oy2QNADpILuraIU+/qPHu6OhwzOt09QNRzpUS5fepo7RCTRufl8HmLElZmSKmREndZOfrFrZd6wex90cd1kih5fZ3ZvepozGgsURtkJ6TS4FL9lLkTBNctJw5u8SzV0tqBKUslUW6POhozBpAoLZPztY6dIGNEvFLtSIgqRYgoGtUI6v53Lj7IX/lr7q+8bwDl59y/b+4Ef8K+X/JTowOFJkQVYebHG8wWgRakCaLundPt+5s0339hAGWD5r+0cqi/90Gn+trIUB9Nz1EtrR2tRBRliAbvn4tGlgjOsQideJPOFxD1k+vf6/vroLxnBlCe1fxnfz/S33PSZEWUdIFo9/Jwe6Xk56a4d4XWcWbkumMFWomoFHfvNLrOletdYRETT9n4ZiRK9Le8zV1nk6Jf0jJnbv137wFajKi5hdWAKtKUREUJFA5FP6OZ/bur7m0dLUWU5f60cGuhRNQKAaQ5LQrKLW+zuDXirh+UFqVb7ld13r8EPr9clqMTb9H5mjRGPVXWXkh+CWLUPG1kH1fd2zpaiaiq6HD3QCdKsr5tEvUPyHOQ1Tso/4REnY+kgijVx0wMy2SDgqhMntbBxDxqu4gCSe88nfLXPTrcX/1Qu//8sm1LUO6NvxqS5KjzViOKedNVS2vH4CCqOOHdLqKg0A2PDfMPPvxEfyjKj9gtu00Z2un4Yyb2+L+Yv7vvr404pzpvNFHJhFeiBqJeBFH7f/hkXxvaL5Z9tilQPJ138dwJCVE1o0aiDjr0JF9rp7ao7Iw6H5Lw90TW8HG2f/+88QlRNWOMN7F8CakWorRRqE8WFsgIurEZA1HinRR1opWIQtlzkJ7fjb/l8mt0YgudrxaixC0R1OudcqS/aEG3v+hmyLxuf9bMSX474hMdq40oSbLOnCcr25y/G+n5ddqos5jq3tbRSkSluHOH0XkOJoy0bBQWTCBV42shilbc6RbF9791oO9vxvH1kFc0/28PjPE7unsLcapWokR/y9vceRYNkBeTJaQaiLrsovcXScAca/kiyx89IQaiogQKh6IH6RJSwy3qgMSiBOqNUZY9AzFqIeqUifNAHDGqBzHqrvkT/btuhPxoon/FNyaJOVQMMeqJyjbnF8JD/HC7f57cSkRVhfj1bUxZ35BGZH2uq1paOwYHUck8Kl40GVHJykQ1NBFRG1YM8w85/AR/GBKJ9t2z25RhXY6fSdb66kSNq+frHx3ur1nW7q95eMS2BeX+g7/J6nk9SO5HxYw6idIt52uFxzFLxH0UnWjeO7zMfbqizeLRU2f+oLzDOwh/M7EuWUJqJqKiBAqHogfrElLyu76WIAplcwbvn4MGlwi+v9uQb0tu1hj1SHmbDZ6fg4F3+aD8pWxViN+eO+upEwFRyW/P60GjiApNeIOnOS676CD/sSXcf+yeAZTFXAyQ8fueljzNEYkQUYG7Ecs+UNaAS0fyfFR1RBBFyiLroicAB0zU9YI2JESVQxK1Cz7D2yii5FPxZUTF9FQ8c16VT8VDOWFRnSqVsjJVyypl11wWSoXE/1S8vLbOvAY9bD3CHgtinpVEoXNWn5/m7oXqaO0Yf+pw2u4uzbyDywUp8A3F62F0i/dM2EdFlqW0ueQ9E+6fkJgcEVmWO7dWvmfC+VhUWa2rJ4b3TLifK33PBKYj4k3UDcFkA4p6NEwUOrhMM2eMVgViR/SbW6L3fWreN7fM1A3uzC/2Q+hvNe3HqArED4zabxaIUp0Uvx1o0Gt2oMDWfxcS8y7ABBkTerImuh4NcOeBxr5hzHT3h6/dWPJ2MTQgbbpLDMs5VpWKDS1NFOmK526BvF0gKXB9pnjxcWOBuPRl8dJAdLBAVsHKnOspOVBF60ZLEpXp7YaLnglLekFeIyCJ9IS+mN6PB2iXhBlDDdO+XGZGITcoGiLegPkclHRxHO4QbrWF3oA5Y6hu2b0g/UlJUDCQaTCQrsRuCYsbGdMjkebOuSAHc4NpaEwwaqhRRB4aSVvaWVm3ntFD7wvS+dTQ45j2DdXfKet4xUdPqax7TTXl47zTSsoy76p63imrMe+TIOGXhuW9I/svU/CCFdHejPRewwbF8m3DdD8Cf3srGrWlsoH0WaTJCw0zd4yqMbhAk3UTUwjaa6qi/zI86Dy3BMcblYrvEHTNtE+BBT0MYtSIUtYlGkwW572KJORqmjSrOq2NcX0cBFyImPy8sphinwVBIq7+DVZ2VnO897wEtGmWPZVilPTRocbT/0Qg89amTecizZwysH46LmByLnYi5VGbwtCgBEFiY0v3B+jjeFWrSUFLQtz5HkbThsjRRu6Q5R4EoVM07bihqlbTI51xPoY23y8JKXdz8jOO3yFWM1oKGftw3XQXoQNvSsLCHSOLE5sc35E2m3y3m9E9e6V4jt62rHZrC/pBA48IEun9MrFbwF4zWmbgVUC4CtNdEXSq0MmCO3Q3p7gzS+voea+q0hwYnTPh4s4DCf8SA63EzVHbyc15f8dgu4A1weZk8cCyx6bptdJiBTm600iTV0ExX9a0OtLkWDBTNyznZBBUdXMyDK5N+Hz1EH56c21OFhvkfZmr0eFXVDZYVAIpgBTB3N/ttL2luPMhWP/daEfZpihB+7x3YUH3YdA1+x5RMYEmiDxHm45AATIQS4UEn8UoXqCZ+cNUjcYCbhcD5Eq4svXy+hgwBYLQFumiH4HF065rO9niBxpIdZHOnwYFPFnpYogwBG5SHM/N0viUcapWvLAmj9QtbzquuUomCuE2EEHCilbDyi6M475Ua4OCNrO/CgtbWzH/Koxm7x9p8duFuFa4EYfG5E6AhYR2tg4IokEiCHo1ZTqzh5jxbQozOMCcQ5AhXocgvqkQrwqKk+4I85SfG2buZFWjJtCuBTjvApBffdmL5ktwz6pKgkhw5/i02Lzfe7typCMBYd4bIHS2lsnu2B64Zn485kOXw9UiDoUHAoSuQ98x93G4uWy1hd8EFZhsyJVz9ymp1HDsgIKlJWxEBvnNbW5s2XV+u1hZFxtw4VxRsRBxKMXcb4/YJfeDjwO0VSxzLoU7fEEquSx+gUDMv1bq3POIEFUrQAqW9xmQDeusFodoS9b8HNrrSdVJUBcs+wOG6d4CBb9euowTKNx7B2QuhvSkM+4Reib7RVjI7XBlZeWJYCovbr/8xjCzn6HEQl0lQWxgzglwYQ9KCyGLChOmvgtLOA4JlylIegIWOHXXmw8NNDrOyCDg5+AS5W8My11aQdR34jY4CGLuS3RrXzOz2/fwWYKYkOntpgQA8681IhsUhJEFKaKEVYllqi0p5tzW1pXEoZ0LGb9mIeYgqXA3Ekk6c97C/6uQyt8EyzsBpVpmT/rBD9r3l+f3abPc99NvGbb7+doECRIkSJAgQYLBC037P5yO8d9BExbGAAAAAElFTkSuQmCC;fontStyle=1" vertex="1" parent="1">
          <mxGeometry x="280" y="160" width="40" height="39.62" as="geometry" />
        </mxCell>
        <mxCell id="zob20SesUyWMZqq7YhEZ-3" value="uzu-web_2&#xa;210.109.63.79&#xa;172.16.20.140" style="shape=image;verticalLabelPosition=bottom;labelBackgroundColor=none;verticalAlign=top;aspect=fixed;imageAspect=0;image=data:image/png,iVBORw0KGgoAAAANSUhEUgAAAGoAAABpCAYAAADStbY5AAAAAXNSR0IArs4c6QAAAARnQU1BAACxjwv8YQUAAAAJcEhZcwAAFxEAABcRAcom8z8AABDDSURBVHhe7V0LkBxFGZ6d2cvrklx2uucugeSivOQVfAGioKCIICWIQBTI3c5jN3chEBCh1CrAFIoIUdACBFJATAgRFAIBDD6IEZVAIEHBV0B8QIgkIRAKA4GAMH5/d8/u7O5sHruzl93LfFV/3e1O90z3//X/6J6daS1BggQJEiRIkCBBGOP6uMbz+7RZ9geGmO7+GvN2U0cSNAWYd3CKOVfpPPewzt2NBvd8g7mv68z9i8Gc2YaVO06VTLBTkOntTjGPCFprWP2+YU31DZ6DgCj6a+Uh+J55m0HcbelM70dVzQQDAuaNgrWcaXD3KUEOEcLdkBBRJMFnIo0Ic1/RuTdT67Dfo86UoEFIgaQT4d5+ZXCyFiIoICSwoDIRFhYmrA9/vVW66XiadmRanTdBbDBz+0HBc6HszUrZRQKEy/Pe1pnzexBgpzPeRw1mnwQLuh3yprCm8vLM+x/KP2iY2VPVFRLUBTO7O5R6KRS+Qbq5sIWQ1fT7cINP6qab1TR7mKoVIGWY3ik68x5A+XcloUFdZV3MfQMkXtPGvQ+qOgl2DEemde7kEVP+KC2I3FhYyVNBkPcSsrpLtIwzQVWKxkR7GIjMQVZJssPngqWJ+JVbi8zxEm2ka6laCbYOPwXlfwpW8itYD6yASAorlawg95rBnfltnc4kVWn7wKeMQ5YI6wTBwh2GrFOQJwhchWv3aONPHa5qJagAFA8l3gR39JYkKFAkESQtAYnEb/DdZ1WNmpA27cNwDcQ7Tw2EIH6p6+AvUv5Fhul+WlVJIDCql2GkXwLlPFtKkBrp5OaQirdxZGqZvg5Vq26AiC/gvEuDa5QSJuZfmwzTuVascuzSGNc3gtwMYtEKg5PFkLIUQSIOCWWtxefvamPPmKhqxQtqA/fOxXWekdcPxy8ikFytuw5lvqJZ9lhVaxcCs4/CaL5XKqN8NAvCKN2+U2POIapGY4FJMAi5EtfdGBm/iDDTfQyEnYbSKVlpMIP37w0yroUioJBwfCCFEEE5SrcfMlj2RE3ra1O1Bgxp1nswrGse2vU/SVj5APLewgD6GcocraoMMox1LRDwdXRwteiwyLIUQcKqxHzo75iwnk1LRKrWToNwycxdJi0r3FZyyTTAnP+CtCvaMvkDVJVWR18b5jtT0OmHKwmSnYYL3ICU/CqNO3urSs0BduIondnno31rAmsvbbuIoc8hxp6rdR3Trmq1IBBfQNBCdOrtSjdHQTr3Bki8L92VPVTVaE50nLFHynSuQLv/Wxm/hDukwbYCcrqmTTZUrRaAld0TnbgGwfm1ipGoAjNS8eWG5dI6W8sEZiPjHCsSIOYifkmCZL8oftFAxPc8N08z3Y+oKs2KnnZKY3XLezo6cxLzoefTzD2/ZZdq9p88RM9kT0c/VgZ9KvSRCOukWJt7UbjyTG+3qtUsmDkEDft8MQ6VNV5mTy/j8w/JjahKrY0Oewz6+3X0C/ErYlDSvJC7q5EhTo9zkl47eP7DmF/cJhpa4Q7oM9JtuIs0dz6uagwuZLwD4QqvRlKxpTQOU//J4mjZK7+EVkFUjYEHEoGvGVbuhYCQ4ojCZwhG3OOGZZ8Scfthu0G3L3Rr6lJkVkt1K7c0xZzZmjV5pDpcAt20c7rVXyyL+RqtnKvDJdBZ9sySssz9Abk1dXiHYTD7aAzIe0BQxPqhsLgtIHM2WaKqMhCYmYbCLhX3hgRJiiBhVeSjvX+h0Rdrnad1qQo1I8Xdy4zOs2VnO6fj3M4zcJ8ZdbgEKWZfaXTOKJbl7p+rkZri9nUlZZn3eDVStx9HpunOMc71hHR/JGHdTPMRvxdro3OmqtBY6JY9Aw1B5hNYkXJzzHsNbuBmzezdTxWtG1D2N1RGhWvAjTDnD9VGJYj6thy9qix3H9G6eiLnN4LUcFnm/rZ+ohQwQOneFvTxomx7SE+d06An50eNT+Mzfd0gY60KlvLiqqN0HwklYk23W5IohbZMz4GGSctltBwVWBeR5rxDyZcq1hig8xcWL0qdnOqnmHeTZk2PdDH1opWJCoA4ex7c4GsFy0J/EBvvaqhVoUNIwQPFUcLgLG9kgMT5kbCEiOLOimodRHyYWUbUQ+pQBVLc+U5Z2aXqUEOAgXGjjOcqTHBnjca896nDMaM91wWi/l28IEYG8y5QR2vH+POG049L0mzqIWnmlAhlefJ6pFBK9Z2nyMWWl1Nl5xRJFWX/nObZT0SW5faCkrLM/UPaco+IKqt1TetULa0ZIOZ4hIzXpVVBmLPZ4L2fU4djhpXdEyNPrn4TURAoI6+O1o4xziSxGo1ZPY3uEhHXgTILImNipMReFv2EwHWdo1paM9oy2QNADpILuraIU+/qPHu6OhwzOt09QNRzpUS5fepo7RCTRufl8HmLElZmSKmREndZOfrFrZd6wex90cd1kih5fZ3ZvepozGgsURtkJ6TS4FL9lLkTBNctJw5u8SzV0tqBKUslUW6POhozBpAoLZPztY6dIGNEvFLtSIgqRYgoGtUI6v53Lj7IX/lr7q+8bwDl59y/b+4Ef8K+X/JTowOFJkQVYebHG8wWgRakCaLundPt+5s0339hAGWD5r+0cqi/90Gn+trIUB9Nz1EtrR2tRBRliAbvn4tGlgjOsQideJPOFxD1k+vf6/vroLxnBlCe1fxnfz/S33PSZEWUdIFo9/Jwe6Xk56a4d4XWcWbkumMFWomoFHfvNLrOletdYRETT9n4ZiRK9Le8zV1nk6Jf0jJnbv137wFajKi5hdWAKtKUREUJFA5FP6OZ/bur7m0dLUWU5f60cGuhRNQKAaQ5LQrKLW+zuDXirh+UFqVb7ld13r8EPr9clqMTb9H5mjRGPVXWXkh+CWLUPG1kH1fd2zpaiaiq6HD3QCdKsr5tEvUPyHOQ1Tso/4REnY+kgijVx0wMy2SDgqhMntbBxDxqu4gCSe88nfLXPTrcX/1Qu//8sm1LUO6NvxqS5KjzViOKedNVS2vH4CCqOOHdLqKg0A2PDfMPPvxEfyjKj9gtu00Z2un4Yyb2+L+Yv7vvr404pzpvNFHJhFeiBqJeBFH7f/hkXxvaL5Z9tilQPJ138dwJCVE1o0aiDjr0JF9rp7ao7Iw6H5Lw90TW8HG2f/+88QlRNWOMN7F8CakWorRRqE8WFsgIurEZA1HinRR1opWIQtlzkJ7fjb/l8mt0YgudrxaixC0R1OudcqS/aEG3v+hmyLxuf9bMSX474hMdq40oSbLOnCcr25y/G+n5ddqos5jq3tbRSkSluHOH0XkOJoy0bBQWTCBV42shilbc6RbF9791oO9vxvH1kFc0/28PjPE7unsLcapWokR/y9vceRYNkBeTJaQaiLrsovcXScAca/kiyx89IQaiogQKh6IH6RJSwy3qgMSiBOqNUZY9AzFqIeqUifNAHDGqBzHqrvkT/btuhPxoon/FNyaJOVQMMeqJyjbnF8JD/HC7f57cSkRVhfj1bUxZ35BGZH2uq1paOwYHUck8Kl40GVHJykQ1NBFRG1YM8w85/AR/GBKJ9t2z25RhXY6fSdb66kSNq+frHx3ur1nW7q95eMS2BeX+g7/J6nk9SO5HxYw6idIt52uFxzFLxH0UnWjeO7zMfbqizeLRU2f+oLzDOwh/M7EuWUJqJqKiBAqHogfrElLyu76WIAplcwbvn4MGlwi+v9uQb0tu1hj1SHmbDZ6fg4F3+aD8pWxViN+eO+upEwFRyW/P60GjiApNeIOnOS676CD/sSXcf+yeAZTFXAyQ8fueljzNEYkQUYG7Ecs+UNaAS0fyfFR1RBBFyiLroicAB0zU9YI2JESVQxK1Cz7D2yii5FPxZUTF9FQ8c16VT8VDOWFRnSqVsjJVyypl11wWSoXE/1S8vLbOvAY9bD3CHgtinpVEoXNWn5/m7oXqaO0Yf+pw2u4uzbyDywUp8A3F62F0i/dM2EdFlqW0ueQ9E+6fkJgcEVmWO7dWvmfC+VhUWa2rJ4b3TLifK33PBKYj4k3UDcFkA4p6NEwUOrhMM2eMVgViR/SbW6L3fWreN7fM1A3uzC/2Q+hvNe3HqArED4zabxaIUp0Uvx1o0Gt2oMDWfxcS8y7ABBkTerImuh4NcOeBxr5hzHT3h6/dWPJ2MTQgbbpLDMs5VpWKDS1NFOmK526BvF0gKXB9pnjxcWOBuPRl8dJAdLBAVsHKnOspOVBF60ZLEpXp7YaLnglLekFeIyCJ9IS+mN6PB2iXhBlDDdO+XGZGITcoGiLegPkclHRxHO4QbrWF3oA5Y6hu2b0g/UlJUDCQaTCQrsRuCYsbGdMjkebOuSAHc4NpaEwwaqhRRB4aSVvaWVm3ntFD7wvS+dTQ45j2DdXfKet4xUdPqax7TTXl47zTSsoy76p63imrMe+TIOGXhuW9I/svU/CCFdHejPRewwbF8m3DdD8Cf3srGrWlsoH0WaTJCw0zd4yqMbhAk3UTUwjaa6qi/zI86Dy3BMcblYrvEHTNtE+BBT0MYtSIUtYlGkwW572KJORqmjSrOq2NcX0cBFyImPy8sphinwVBIq7+DVZ2VnO897wEtGmWPZVilPTRocbT/0Qg89amTecizZwysH46LmByLnYi5VGbwtCgBEFiY0v3B+jjeFWrSUFLQtz5HkbThsjRRu6Q5R4EoVM07bihqlbTI51xPoY23y8JKXdz8jOO3yFWM1oKGftw3XQXoQNvSsLCHSOLE5sc35E2m3y3m9E9e6V4jt62rHZrC/pBA48IEun9MrFbwF4zWmbgVUC4CtNdEXSq0MmCO3Q3p7gzS+voea+q0hwYnTPh4s4DCf8SA63EzVHbyc15f8dgu4A1weZk8cCyx6bptdJiBTm600iTV0ExX9a0OtLkWDBTNyznZBBUdXMyDK5N+Hz1EH56c21OFhvkfZmr0eFXVDZYVAIpgBTB3N/ttL2luPMhWP/daEfZpihB+7x3YUH3YdA1+x5RMYEmiDxHm45AATIQS4UEn8UoXqCZ+cNUjcYCbhcD5Eq4svXy+hgwBYLQFumiH4HF065rO9niBxpIdZHOnwYFPFnpYogwBG5SHM/N0viUcapWvLAmj9QtbzquuUomCuE2EEHCilbDyi6M475Ua4OCNrO/CgtbWzH/Koxm7x9p8duFuFa4EYfG5E6AhYR2tg4IokEiCHo1ZTqzh5jxbQozOMCcQ5AhXocgvqkQrwqKk+4I85SfG2buZFWjJtCuBTjvApBffdmL5ktwz6pKgkhw5/i02Lzfe7typCMBYd4bIHS2lsnu2B64Zn485kOXw9UiDoUHAoSuQ98x93G4uWy1hd8EFZhsyJVz9ymp1HDsgIKlJWxEBvnNbW5s2XV+u1hZFxtw4VxRsRBxKMXcb4/YJfeDjwO0VSxzLoU7fEEquSx+gUDMv1bq3POIEFUrQAqW9xmQDeusFodoS9b8HNrrSdVJUBcs+wOG6d4CBb9euowTKNx7B2QuhvSkM+4Reib7RVjI7XBlZeWJYCovbr/8xjCzn6HEQl0lQWxgzglwYQ9KCyGLChOmvgtLOA4JlylIegIWOHXXmw8NNDrOyCDg5+AS5W8My11aQdR34jY4CGLuS3RrXzOz2/fwWYKYkOntpgQA8681IhsUhJEFKaKEVYllqi0p5tzW1pXEoZ0LGb9mIeYgqXA3Ekk6c97C/6uQyt8EyzsBpVpmT/rBD9r3l+f3abPc99NvGbb7+doECRIkSJAgQYLBC037P5yO8d9BExbGAAAAAElFTkSuQmCC;fontStyle=1" vertex="1" parent="1">
          <mxGeometry x="400" y="160" width="40" height="39.62" as="geometry" />
        </mxCell>
        <mxCell id="zob20SesUyWMZqq7YhEZ-4" value="uzu-web_3&#xa;210.109.60.190&#xa;172.16.20.9" style="shape=image;verticalLabelPosition=bottom;labelBackgroundColor=none;verticalAlign=top;aspect=fixed;imageAspect=0;image=data:image/png,iVBORw0KGgoAAAANSUhEUgAAAGoAAABpCAYAAADStbY5AAAAAXNSR0IArs4c6QAAAARnQU1BAACxjwv8YQUAAAAJcEhZcwAAFxEAABcRAcom8z8AABDDSURBVHhe7V0LkBxFGZ6d2cvrklx2uucugeSivOQVfAGioKCIICWIQBTI3c5jN3chEBCh1CrAFIoIUdACBFJATAgRFAIBDD6IEZVAIEHBV0B8QIgkIRAKA4GAMH5/d8/u7O5sHruzl93LfFV/3e1O90z3//X/6J6daS1BggQJEiRIkCBBGOP6uMbz+7RZ9geGmO7+GvN2U0cSNAWYd3CKOVfpPPewzt2NBvd8g7mv68z9i8Gc2YaVO06VTLBTkOntTjGPCFprWP2+YU31DZ6DgCj6a+Uh+J55m0HcbelM70dVzQQDAuaNgrWcaXD3KUEOEcLdkBBRJMFnIo0Ic1/RuTdT67Dfo86UoEFIgaQT4d5+ZXCyFiIoICSwoDIRFhYmrA9/vVW66XiadmRanTdBbDBz+0HBc6HszUrZRQKEy/Pe1pnzexBgpzPeRw1mnwQLuh3yprCm8vLM+x/KP2iY2VPVFRLUBTO7O5R6KRS+Qbq5sIWQ1fT7cINP6qab1TR7mKoVIGWY3ik68x5A+XcloUFdZV3MfQMkXtPGvQ+qOgl2DEemde7kEVP+KC2I3FhYyVNBkPcSsrpLtIwzQVWKxkR7GIjMQVZJssPngqWJ+JVbi8zxEm2ka6laCbYOPwXlfwpW8itYD6yASAorlawg95rBnfltnc4kVWn7wKeMQ5YI6wTBwh2GrFOQJwhchWv3aONPHa5qJagAFA8l3gR39JYkKFAkESQtAYnEb/DdZ1WNmpA27cNwDcQ7Tw2EIH6p6+AvUv5Fhul+WlVJIDCql2GkXwLlPFtKkBrp5OaQirdxZGqZvg5Vq26AiC/gvEuDa5QSJuZfmwzTuVascuzSGNc3gtwMYtEKg5PFkLIUQSIOCWWtxefvamPPmKhqxQtqA/fOxXWekdcPxy8ikFytuw5lvqJZ9lhVaxcCs4/CaL5XKqN8NAvCKN2+U2POIapGY4FJMAi5EtfdGBm/iDDTfQyEnYbSKVlpMIP37w0yroUioJBwfCCFEEE5SrcfMlj2RE3ra1O1Bgxp1nswrGse2vU/SVj5APLewgD6GcocraoMMox1LRDwdXRwteiwyLIUQcKqxHzo75iwnk1LRKrWToNwycxdJi0r3FZyyTTAnP+CtCvaMvkDVJVWR18b5jtT0OmHKwmSnYYL3ICU/CqNO3urSs0BduIondnno31rAmsvbbuIoc8hxp6rdR3Trmq1IBBfQNBCdOrtSjdHQTr3Bki8L92VPVTVaE50nLFHynSuQLv/Wxm/hDukwbYCcrqmTTZUrRaAld0TnbgGwfm1ipGoAjNS8eWG5dI6W8sEZiPjHCsSIOYifkmCZL8oftFAxPc8N08z3Y+oKs2KnnZKY3XLezo6cxLzoefTzD2/ZZdq9p88RM9kT0c/VgZ9KvSRCOukWJt7UbjyTG+3qtUsmDkEDft8MQ6VNV5mTy/j8w/JjahKrY0Oewz6+3X0C/ErYlDSvJC7q5EhTo9zkl47eP7DmF/cJhpa4Q7oM9JtuIs0dz6uagwuZLwD4QqvRlKxpTQOU//J4mjZK7+EVkFUjYEHEoGvGVbuhYCQ4ojCZwhG3OOGZZ8Scfthu0G3L3Rr6lJkVkt1K7c0xZzZmjV5pDpcAt20c7rVXyyL+RqtnKvDJdBZ9sySssz9Abk1dXiHYTD7aAzIe0BQxPqhsLgtIHM2WaKqMhCYmYbCLhX3hgRJiiBhVeSjvX+h0Rdrnad1qQo1I8Xdy4zOs2VnO6fj3M4zcJ8ZdbgEKWZfaXTOKJbl7p+rkZri9nUlZZn3eDVStx9HpunOMc71hHR/JGHdTPMRvxdro3OmqtBY6JY9Aw1B5hNYkXJzzHsNbuBmzezdTxWtG1D2N1RGhWvAjTDnD9VGJYj6thy9qix3H9G6eiLnN4LUcFnm/rZ+ohQwQOneFvTxomx7SE+d06An50eNT+Mzfd0gY60KlvLiqqN0HwklYk23W5IohbZMz4GGSctltBwVWBeR5rxDyZcq1hig8xcWL0qdnOqnmHeTZk2PdDH1opWJCoA4ex7c4GsFy0J/EBvvaqhVoUNIwQPFUcLgLG9kgMT5kbCEiOLOimodRHyYWUbUQ+pQBVLc+U5Z2aXqUEOAgXGjjOcqTHBnjca896nDMaM91wWi/l28IEYG8y5QR2vH+POG049L0mzqIWnmlAhlefJ6pFBK9Z2nyMWWl1Nl5xRJFWX/nObZT0SW5faCkrLM/UPaco+IKqt1TetULa0ZIOZ4hIzXpVVBmLPZ4L2fU4djhpXdEyNPrn4TURAoI6+O1o4xziSxGo1ZPY3uEhHXgTILImNipMReFv2EwHWdo1paM9oy2QNADpILuraIU+/qPHu6OhwzOt09QNRzpUS5fepo7RCTRufl8HmLElZmSKmREndZOfrFrZd6wex90cd1kih5fZ3ZvepozGgsURtkJ6TS4FL9lLkTBNctJw5u8SzV0tqBKUslUW6POhozBpAoLZPztY6dIGNEvFLtSIgqRYgoGtUI6v53Lj7IX/lr7q+8bwDl59y/b+4Ef8K+X/JTowOFJkQVYebHG8wWgRakCaLundPt+5s0339hAGWD5r+0cqi/90Gn+trIUB9Nz1EtrR2tRBRliAbvn4tGlgjOsQideJPOFxD1k+vf6/vroLxnBlCe1fxnfz/S33PSZEWUdIFo9/Jwe6Xk56a4d4XWcWbkumMFWomoFHfvNLrOletdYRETT9n4ZiRK9Le8zV1nk6Jf0jJnbv137wFajKi5hdWAKtKUREUJFA5FP6OZ/bur7m0dLUWU5f60cGuhRNQKAaQ5LQrKLW+zuDXirh+UFqVb7ld13r8EPr9clqMTb9H5mjRGPVXWXkh+CWLUPG1kH1fd2zpaiaiq6HD3QCdKsr5tEvUPyHOQ1Tso/4REnY+kgijVx0wMy2SDgqhMntbBxDxqu4gCSe88nfLXPTrcX/1Qu//8sm1LUO6NvxqS5KjzViOKedNVS2vH4CCqOOHdLqKg0A2PDfMPPvxEfyjKj9gtu00Z2un4Yyb2+L+Yv7vvr404pzpvNFHJhFeiBqJeBFH7f/hkXxvaL5Z9tilQPJ138dwJCVE1o0aiDjr0JF9rp7ao7Iw6H5Lw90TW8HG2f/+88QlRNWOMN7F8CakWorRRqE8WFsgIurEZA1HinRR1opWIQtlzkJ7fjb/l8mt0YgudrxaixC0R1OudcqS/aEG3v+hmyLxuf9bMSX474hMdq40oSbLOnCcr25y/G+n5ddqos5jq3tbRSkSluHOH0XkOJoy0bBQWTCBV42shilbc6RbF9791oO9vxvH1kFc0/28PjPE7unsLcapWokR/y9vceRYNkBeTJaQaiLrsovcXScAca/kiyx89IQaiogQKh6IH6RJSwy3qgMSiBOqNUZY9AzFqIeqUifNAHDGqBzHqrvkT/btuhPxoon/FNyaJOVQMMeqJyjbnF8JD/HC7f57cSkRVhfj1bUxZ35BGZH2uq1paOwYHUck8Kl40GVHJykQ1NBFRG1YM8w85/AR/GBKJ9t2z25RhXY6fSdb66kSNq+frHx3ur1nW7q95eMS2BeX+g7/J6nk9SO5HxYw6idIt52uFxzFLxH0UnWjeO7zMfbqizeLRU2f+oLzDOwh/M7EuWUJqJqKiBAqHogfrElLyu76WIAplcwbvn4MGlwi+v9uQb0tu1hj1SHmbDZ6fg4F3+aD8pWxViN+eO+upEwFRyW/P60GjiApNeIOnOS676CD/sSXcf+yeAZTFXAyQ8fueljzNEYkQUYG7Ecs+UNaAS0fyfFR1RBBFyiLroicAB0zU9YI2JESVQxK1Cz7D2yii5FPxZUTF9FQ8c16VT8VDOWFRnSqVsjJVyypl11wWSoXE/1S8vLbOvAY9bD3CHgtinpVEoXNWn5/m7oXqaO0Yf+pw2u4uzbyDywUp8A3F62F0i/dM2EdFlqW0ueQ9E+6fkJgcEVmWO7dWvmfC+VhUWa2rJ4b3TLifK33PBKYj4k3UDcFkA4p6NEwUOrhMM2eMVgViR/SbW6L3fWreN7fM1A3uzC/2Q+hvNe3HqArED4zabxaIUp0Uvx1o0Gt2oMDWfxcS8y7ABBkTerImuh4NcOeBxr5hzHT3h6/dWPJ2MTQgbbpLDMs5VpWKDS1NFOmK526BvF0gKXB9pnjxcWOBuPRl8dJAdLBAVsHKnOspOVBF60ZLEpXp7YaLnglLekFeIyCJ9IS+mN6PB2iXhBlDDdO+XGZGITcoGiLegPkclHRxHO4QbrWF3oA5Y6hu2b0g/UlJUDCQaTCQrsRuCYsbGdMjkebOuSAHc4NpaEwwaqhRRB4aSVvaWVm3ntFD7wvS+dTQ45j2DdXfKet4xUdPqax7TTXl47zTSsoy76p63imrMe+TIOGXhuW9I/svU/CCFdHejPRewwbF8m3DdD8Cf3srGrWlsoH0WaTJCw0zd4yqMbhAk3UTUwjaa6qi/zI86Dy3BMcblYrvEHTNtE+BBT0MYtSIUtYlGkwW572KJORqmjSrOq2NcX0cBFyImPy8sphinwVBIq7+DVZ2VnO897wEtGmWPZVilPTRocbT/0Qg89amTecizZwysH46LmByLnYi5VGbwtCgBEFiY0v3B+jjeFWrSUFLQtz5HkbThsjRRu6Q5R4EoVM07bihqlbTI51xPoY23y8JKXdz8jOO3yFWM1oKGftw3XQXoQNvSsLCHSOLE5sc35E2m3y3m9E9e6V4jt62rHZrC/pBA48IEun9MrFbwF4zWmbgVUC4CtNdEXSq0MmCO3Q3p7gzS+voea+q0hwYnTPh4s4DCf8SA63EzVHbyc15f8dgu4A1weZk8cCyx6bptdJiBTm600iTV0ExX9a0OtLkWDBTNyznZBBUdXMyDK5N+Hz1EH56c21OFhvkfZmr0eFXVDZYVAIpgBTB3N/ttL2luPMhWP/daEfZpihB+7x3YUH3YdA1+x5RMYEmiDxHm45AATIQS4UEn8UoXqCZ+cNUjcYCbhcD5Eq4svXy+hgwBYLQFumiH4HF065rO9niBxpIdZHOnwYFPFnpYogwBG5SHM/N0viUcapWvLAmj9QtbzquuUomCuE2EEHCilbDyi6M475Ua4OCNrO/CgtbWzH/Koxm7x9p8duFuFa4EYfG5E6AhYR2tg4IokEiCHo1ZTqzh5jxbQozOMCcQ5AhXocgvqkQrwqKk+4I85SfG2buZFWjJtCuBTjvApBffdmL5ktwz6pKgkhw5/i02Lzfe7typCMBYd4bIHS2lsnu2B64Zn485kOXw9UiDoUHAoSuQ98x93G4uWy1hd8EFZhsyJVz9ymp1HDsgIKlJWxEBvnNbW5s2XV+u1hZFxtw4VxRsRBxKMXcb4/YJfeDjwO0VSxzLoU7fEEquSx+gUDMv1bq3POIEFUrQAqW9xmQDeusFodoS9b8HNrrSdVJUBcs+wOG6d4CBb9euowTKNx7B2QuhvSkM+4Reib7RVjI7XBlZeWJYCovbr/8xjCzn6HEQl0lQWxgzglwYQ9KCyGLChOmvgtLOA4JlylIegIWOHXXmw8NNDrOyCDg5+AS5W8My11aQdR34jY4CGLuS3RrXzOz2/fwWYKYkOntpgQA8681IhsUhJEFKaKEVYllqi0p5tzW1pXEoZ0LGb9mIeYgqXA3Ekk6c97C/6uQyt8EyzsBpVpmT/rBD9r3l+f3abPc99NvGbb7+doECRIkSJAgQYLBC037P5yO8d9BExbGAAAAAElFTkSuQmCC;fontStyle=1" vertex="1" parent="1">
          <mxGeometry x="520" y="160" width="40" height="39.62" as="geometry" />
        </mxCell>
        <mxCell id="zob20SesUyWMZqq7YhEZ-5" value="uzu-DB_1&#xa;210.109.60.175&#xa;172.16.20.133" style="shape=image;verticalLabelPosition=bottom;labelBackgroundColor=none;verticalAlign=top;aspect=fixed;imageAspect=0;image=data:image/png,iVBORw0KGgoAAAANSUhEUgAAAGoAAABpCAYAAADStbY5AAAAAXNSR0IArs4c6QAAAARnQU1BAACxjwv8YQUAAAAJcEhZcwAAFxEAABcRAcom8z8AABDDSURBVHhe7V0LkBxFGZ6d2cvrklx2uucugeSivOQVfAGioKCIICWIQBTI3c5jN3chEBCh1CrAFIoIUdACBFJATAgRFAIBDD6IEZVAIEHBV0B8QIgkIRAKA4GAMH5/d8/u7O5sHruzl93LfFV/3e1O90z3//X/6J6daS1BggQJEiRIkCBBGOP6uMbz+7RZ9geGmO7+GvN2U0cSNAWYd3CKOVfpPPewzt2NBvd8g7mv68z9i8Gc2YaVO06VTLBTkOntTjGPCFprWP2+YU31DZ6DgCj6a+Uh+J55m0HcbelM70dVzQQDAuaNgrWcaXD3KUEOEcLdkBBRJMFnIo0Ic1/RuTdT67Dfo86UoEFIgaQT4d5+ZXCyFiIoICSwoDIRFhYmrA9/vVW66XiadmRanTdBbDBz+0HBc6HszUrZRQKEy/Pe1pnzexBgpzPeRw1mnwQLuh3yprCm8vLM+x/KP2iY2VPVFRLUBTO7O5R6KRS+Qbq5sIWQ1fT7cINP6qab1TR7mKoVIGWY3ik68x5A+XcloUFdZV3MfQMkXtPGvQ+qOgl2DEemde7kEVP+KC2I3FhYyVNBkPcSsrpLtIwzQVWKxkR7GIjMQVZJssPngqWJ+JVbi8zxEm2ka6laCbYOPwXlfwpW8itYD6yASAorlawg95rBnfltnc4kVWn7wKeMQ5YI6wTBwh2GrFOQJwhchWv3aONPHa5qJagAFA8l3gR39JYkKFAkESQtAYnEb/DdZ1WNmpA27cNwDcQ7Tw2EIH6p6+AvUv5Fhul+WlVJIDCql2GkXwLlPFtKkBrp5OaQirdxZGqZvg5Vq26AiC/gvEuDa5QSJuZfmwzTuVascuzSGNc3gtwMYtEKg5PFkLIUQSIOCWWtxefvamPPmKhqxQtqA/fOxXWekdcPxy8ikFytuw5lvqJZ9lhVaxcCs4/CaL5XKqN8NAvCKN2+U2POIapGY4FJMAi5EtfdGBm/iDDTfQyEnYbSKVlpMIP37w0yroUioJBwfCCFEEE5SrcfMlj2RE3ra1O1Bgxp1nswrGse2vU/SVj5APLewgD6GcocraoMMox1LRDwdXRwteiwyLIUQcKqxHzo75iwnk1LRKrWToNwycxdJi0r3FZyyTTAnP+CtCvaMvkDVJVWR18b5jtT0OmHKwmSnYYL3ICU/CqNO3urSs0BduIondnno31rAmsvbbuIoc8hxp6rdR3Trmq1IBBfQNBCdOrtSjdHQTr3Bki8L92VPVTVaE50nLFHynSuQLv/Wxm/hDukwbYCcrqmTTZUrRaAld0TnbgGwfm1ipGoAjNS8eWG5dI6W8sEZiPjHCsSIOYifkmCZL8oftFAxPc8N08z3Y+oKs2KnnZKY3XLezo6cxLzoefTzD2/ZZdq9p88RM9kT0c/VgZ9KvSRCOukWJt7UbjyTG+3qtUsmDkEDft8MQ6VNV5mTy/j8w/JjahKrY0Oewz6+3X0C/ErYlDSvJC7q5EhTo9zkl47eP7DmF/cJhpa4Q7oM9JtuIs0dz6uagwuZLwD4QqvRlKxpTQOU//J4mjZK7+EVkFUjYEHEoGvGVbuhYCQ4ojCZwhG3OOGZZ8Scfthu0G3L3Rr6lJkVkt1K7c0xZzZmjV5pDpcAt20c7rVXyyL+RqtnKvDJdBZ9sySssz9Abk1dXiHYTD7aAzIe0BQxPqhsLgtIHM2WaKqMhCYmYbCLhX3hgRJiiBhVeSjvX+h0Rdrnad1qQo1I8Xdy4zOs2VnO6fj3M4zcJ8ZdbgEKWZfaXTOKJbl7p+rkZri9nUlZZn3eDVStx9HpunOMc71hHR/JGHdTPMRvxdro3OmqtBY6JY9Aw1B5hNYkXJzzHsNbuBmzezdTxWtG1D2N1RGhWvAjTDnD9VGJYj6thy9qix3H9G6eiLnN4LUcFnm/rZ+ohQwQOneFvTxomx7SE+d06An50eNT+Mzfd0gY60KlvLiqqN0HwklYk23W5IohbZMz4GGSctltBwVWBeR5rxDyZcq1hig8xcWL0qdnOqnmHeTZk2PdDH1opWJCoA4ex7c4GsFy0J/EBvvaqhVoUNIwQPFUcLgLG9kgMT5kbCEiOLOimodRHyYWUbUQ+pQBVLc+U5Z2aXqUEOAgXGjjOcqTHBnjca896nDMaM91wWi/l28IEYG8y5QR2vH+POG049L0mzqIWnmlAhlefJ6pFBK9Z2nyMWWl1Nl5xRJFWX/nObZT0SW5faCkrLM/UPaco+IKqt1TetULa0ZIOZ4hIzXpVVBmLPZ4L2fU4djhpXdEyNPrn4TURAoI6+O1o4xziSxGo1ZPY3uEhHXgTILImNipMReFv2EwHWdo1paM9oy2QNADpILuraIU+/qPHu6OhwzOt09QNRzpUS5fepo7RCTRufl8HmLElZmSKmREndZOfrFrZd6wex90cd1kih5fZ3ZvepozGgsURtkJ6TS4FL9lLkTBNctJw5u8SzV0tqBKUslUW6POhozBpAoLZPztY6dIGNEvFLtSIgqRYgoGtUI6v53Lj7IX/lr7q+8bwDl59y/b+4Ef8K+X/JTowOFJkQVYebHG8wWgRakCaLundPt+5s0339hAGWD5r+0cqi/90Gn+trIUB9Nz1EtrR2tRBRliAbvn4tGlgjOsQideJPOFxD1k+vf6/vroLxnBlCe1fxnfz/S33PSZEWUdIFo9/Jwe6Xk56a4d4XWcWbkumMFWomoFHfvNLrOletdYRETT9n4ZiRK9Le8zV1nk6Jf0jJnbv137wFajKi5hdWAKtKUREUJFA5FP6OZ/bur7m0dLUWU5f60cGuhRNQKAaQ5LQrKLW+zuDXirh+UFqVb7ld13r8EPr9clqMTb9H5mjRGPVXWXkh+CWLUPG1kH1fd2zpaiaiq6HD3QCdKsr5tEvUPyHOQ1Tso/4REnY+kgijVx0wMy2SDgqhMntbBxDxqu4gCSe88nfLXPTrcX/1Qu//8sm1LUO6NvxqS5KjzViOKedNVS2vH4CCqOOHdLqKg0A2PDfMPPvxEfyjKj9gtu00Z2un4Yyb2+L+Yv7vvr404pzpvNFHJhFeiBqJeBFH7f/hkXxvaL5Z9tilQPJ138dwJCVE1o0aiDjr0JF9rp7ao7Iw6H5Lw90TW8HG2f/+88QlRNWOMN7F8CakWorRRqE8WFsgIurEZA1HinRR1opWIQtlzkJ7fjb/l8mt0YgudrxaixC0R1OudcqS/aEG3v+hmyLxuf9bMSX474hMdq40oSbLOnCcr25y/G+n5ddqos5jq3tbRSkSluHOH0XkOJoy0bBQWTCBV42shilbc6RbF9791oO9vxvH1kFc0/28PjPE7unsLcapWokR/y9vceRYNkBeTJaQaiLrsovcXScAca/kiyx89IQaiogQKh6IH6RJSwy3qgMSiBOqNUZY9AzFqIeqUifNAHDGqBzHqrvkT/btuhPxoon/FNyaJOVQMMeqJyjbnF8JD/HC7f57cSkRVhfj1bUxZ35BGZH2uq1paOwYHUck8Kl40GVHJykQ1NBFRG1YM8w85/AR/GBKJ9t2z25RhXY6fSdb66kSNq+frHx3ur1nW7q95eMS2BeX+g7/J6nk9SO5HxYw6idIt52uFxzFLxH0UnWjeO7zMfbqizeLRU2f+oLzDOwh/M7EuWUJqJqKiBAqHogfrElLyu76WIAplcwbvn4MGlwi+v9uQb0tu1hj1SHmbDZ6fg4F3+aD8pWxViN+eO+upEwFRyW/P60GjiApNeIOnOS676CD/sSXcf+yeAZTFXAyQ8fueljzNEYkQUYG7Ecs+UNaAS0fyfFR1RBBFyiLroicAB0zU9YI2JESVQxK1Cz7D2yii5FPxZUTF9FQ8c16VT8VDOWFRnSqVsjJVyypl11wWSoXE/1S8vLbOvAY9bD3CHgtinpVEoXNWn5/m7oXqaO0Yf+pw2u4uzbyDywUp8A3F62F0i/dM2EdFlqW0ueQ9E+6fkJgcEVmWO7dWvmfC+VhUWa2rJ4b3TLifK33PBKYj4k3UDcFkA4p6NEwUOrhMM2eMVgViR/SbW6L3fWreN7fM1A3uzC/2Q+hvNe3HqArED4zabxaIUp0Uvx1o0Gt2oMDWfxcS8y7ABBkTerImuh4NcOeBxr5hzHT3h6/dWPJ2MTQgbbpLDMs5VpWKDS1NFOmK526BvF0gKXB9pnjxcWOBuPRl8dJAdLBAVsHKnOspOVBF60ZLEpXp7YaLnglLekFeIyCJ9IS+mN6PB2iXhBlDDdO+XGZGITcoGiLegPkclHRxHO4QbrWF3oA5Y6hu2b0g/UlJUDCQaTCQrsRuCYsbGdMjkebOuSAHc4NpaEwwaqhRRB4aSVvaWVm3ntFD7wvS+dTQ45j2DdXfKet4xUdPqax7TTXl47zTSsoy76p63imrMe+TIOGXhuW9I/svU/CCFdHejPRewwbF8m3DdD8Cf3srGrWlsoH0WaTJCw0zd4yqMbhAk3UTUwjaa6qi/zI86Dy3BMcblYrvEHTNtE+BBT0MYtSIUtYlGkwW572KJORqmjSrOq2NcX0cBFyImPy8sphinwVBIq7+DVZ2VnO897wEtGmWPZVilPTRocbT/0Qg89amTecizZwysH46LmByLnYi5VGbwtCgBEFiY0v3B+jjeFWrSUFLQtz5HkbThsjRRu6Q5R4EoVM07bihqlbTI51xPoY23y8JKXdz8jOO3yFWM1oKGftw3XQXoQNvSsLCHSOLE5sc35E2m3y3m9E9e6V4jt62rHZrC/pBA48IEun9MrFbwF4zWmbgVUC4CtNdEXSq0MmCO3Q3p7gzS+voea+q0hwYnTPh4s4DCf8SA63EzVHbyc15f8dgu4A1weZk8cCyx6bptdJiBTm600iTV0ExX9a0OtLkWDBTNyznZBBUdXMyDK5N+Hz1EH56c21OFhvkfZmr0eFXVDZYVAIpgBTB3N/ttL2luPMhWP/daEfZpihB+7x3YUH3YdA1+x5RMYEmiDxHm45AATIQS4UEn8UoXqCZ+cNUjcYCbhcD5Eq4svXy+hgwBYLQFumiH4HF065rO9niBxpIdZHOnwYFPFnpYogwBG5SHM/N0viUcapWvLAmj9QtbzquuUomCuE2EEHCilbDyi6M475Ua4OCNrO/CgtbWzH/Koxm7x9p8duFuFa4EYfG5E6AhYR2tg4IokEiCHo1ZTqzh5jxbQozOMCcQ5AhXocgvqkQrwqKk+4I85SfG2buZFWjJtCuBTjvApBffdmL5ktwz6pKgkhw5/i02Lzfe7typCMBYd4bIHS2lsnu2B64Zn485kOXw9UiDoUHAoSuQ98x93G4uWy1hd8EFZhsyJVz9ymp1HDsgIKlJWxEBvnNbW5s2XV+u1hZFxtw4VxRsRBxKMXcb4/YJfeDjwO0VSxzLoU7fEEquSx+gUDMv1bq3POIEFUrQAqW9xmQDeusFodoS9b8HNrrSdVJUBcs+wOG6d4CBb9euowTKNx7B2QuhvSkM+4Reib7RVjI7XBlZeWJYCovbr/8xjCzn6HEQl0lQWxgzglwYQ9KCyGLChOmvgtLOA4JlylIegIWOHXXmw8NNDrOyCDg5+AS5W8My11aQdR34jY4CGLuS3RrXzOz2/fwWYKYkOntpgQA8681IhsUhJEFKaKEVYllqi0p5tzW1pXEoZ0LGb9mIeYgqXA3Ekk6c97C/6uQyt8EyzsBpVpmT/rBD9r3l+f3abPc99NvGbb7+doECRIkSJAgQYLBC037P5yO8d9BExbGAAAAAElFTkSuQmCC;fontStyle=1" vertex="1" parent="1">
          <mxGeometry x="640" y="160" width="40" height="39.62" as="geometry" />
        </mxCell>
      </root>
    </mxGraphModel>
  </diagram>
</mxfile>
